<svg version="1.1" id="Layer_1" xmlns="http://www.w3.org/2000/svg" x="0" y="0" viewBox="0 0 73.8 62.9" xml:space="preserve"><style>.st0{fill:#e6b3d7}</style><g id="Subhome"><g id="Navigation-Student-Copy-104" transform="translate(-710 -3055)"><g id="Group-9" transform="translate(109 1184)"><g id="Group-12-Copy" transform="translate(0 1645)"><g id="Group-6"><g id="Group-4"><path class="st0" d="M652.5 226v53.3c0 2.3-.5 4.6-1.9 6.5-1.3 1.8-3 2.8-5.2 3-1.5.1-2.9.2-4.4-.1-2.6-.4-4.4-1.8-5.4-4.3-.6-1.5-.9-3.1-.9-4.7v-46.4c0-.6 0-.6-.6-.6H630c-.4 0-.5.1-.5.5v54.6c0 .3-.1.5-.4.5h-5.6c-.4 0-.5-.1-.5-.5v-54.6c0-.3-.1-.4-.4-.4h-5.3c-.4 0-.5-.1-.5-.5V226h24.7v53.2c0 .6.1 1.3.3 1.9.3.8.9 1.2 1.8 1.2.8 0 1.4-.3 1.8-1 .3-.7.4-1.4.4-2.2V226h6.7z"/><path class="st0" d="M601.1 263.2h6.1c.3 0 .4.1.4.4v7.7c0 .6.1 1.2.5 1.7.5.8 1.3.9 2.1.7.9-.1 1.3-.8 1.4-1.6.3-1.5.2-3 .1-4.5-.1-1.2-.3-2.3-.9-3.3-.6-1.1-1.4-2.1-2.2-3.2-1.6-2-3.3-4-4.7-6.1-1.2-1.9-2.1-4-2.3-6.3-.2-1.6-.2-3.2-.2-4.8.1-1.4.2-2.7.8-4 .7-1.5 1.8-2.6 3.4-3.2.9-.4 1.9-.5 2.8-.6.8-.1 1.7-.1 2.5 0 1.3 0 2.5.2 3.7.7 1.9.8 2.8 2.3 3.2 4.3.2.9.2 1.8.2 2.6v6.5c0 .3-.1.4-.4.4h-5.5c-.3 0-.4-.1-.4-.4v-5.8c0-.4-.1-.9-.1-1.3-.2-1-1.1-1.4-2-1.3-1 .2-1.4.6-1.6 1.7-.1 1.4-.2 2.9.1 4.3.3 1.3.9 2.3 1.7 3.4.8 1.1 1.7 2.1 2.4 3.2 1.4 2 3.1 3.9 4.4 6 .9 1.5 1.6 3.2 1.8 5 .3 2.1.2 4.1.1 6.2-.1 1.9-.5 3.6-1.5 5.2-1.2 1.8-2.8 2.9-4.9 3.1-2 .3-4 .3-6-.2-1.2-.3-2.4-.8-3.2-1.8-.9-1.1-1.5-2.4-1.8-3.9-.1-.3 0-.7-.1-1 .1-3.3.1-6.5.1-9.8zm56.1-5.8v-21.7c0-.4.1-.5.5-.5h10.2c1.2 0 2.4.2 3.5.8 1.4.7 2.2 1.8 2.8 3.1.5 1.2.6 2.5.6 3.8v29.2c0 1.8-.4 3.6-1.5 5.1-1 1.4-2.4 2.1-4.1 2.4-1 .1-2 .1-2.9.1h-8.5c-.4 0-.5-.1-.5-.5-.1-7.3-.1-14.6-.1-21.8zm6.6-.3v15.7c0 .3.1.4.4.4h1.5c.9 0 1.8-.4 2-1.5.1-.5.2-1.1.2-1.6v-25.2c0-.6 0-1.2-.1-1.8-.2-1.1-.5-1.8-1.7-2-.6-.1-1.2 0-1.8 0s-.6-.1-.6.6c.1 5.1.1 10.3.1 15.4z"/></g></g></g></g></g></g></svg>